<?xml version="1.0" encoding="UTF-8" standalone="no"?>
<svg
   xmlns:dc="http://purl.org/dc/elements/1.1/"
   xmlns:cc="http://creativecommons.org/ns#"
   xmlns:rdf="http://www.w3.org/1999/02/22-rdf-syntax-ns#"
   xmlns:svg="http://www.w3.org/2000/svg"
   xmlns="http://www.w3.org/2000/svg"
   viewBox="0 0 1496 1496"
   height="1496"
   width="1496"
   xml:space="preserve"
   id="svg2"
   version="1.1"><metadata
     id="metadata8"><rdf:RDF><cc:Work
         rdf:about=""><dc:format>image/svg+xml</dc:format><dc:type
           rdf:resource="http://purl.org/dc/dcmitype/StillImage" /></cc:Work></rdf:RDF></metadata><defs
     id="defs6" /><g
     transform="matrix(1.3333333,0,0,-1.3333333,0,1496)"
     id="g10"><g
       transform="scale(0.1)"
       id="g12"><path
         id="path14"
         style="fill:#ffffff;fill-opacity:1;fill-rule:nonzero;stroke:none"
         d="M 11225.9,0 H 0 V 11205.9 H 11225.9 V 0" /><path
         id="path16"
         style="fill:#1d191a;fill-opacity:1;fill-rule:nonzero;stroke:none"
         d="m 600.828,9653.21 c -2.508,-141.95 217.492,-141.7 220,0 5.793,327.54 -128.57,653.49 -369.707,876.49 -129.93,120.1 -285.633,200.2 -451.121,236.8 v -225.9 c 107.234,-31.3 207.598,-87.3 295.566,-166.5 202.852,-182.5 310.032,-451.16 305.262,-720.89" /><path
         id="path18"
         style="fill:#1d191a;fill-opacity:1;fill-rule:nonzero;stroke:none"
         d="m 151.414,9430.03 c 14.356,-30.77 26.77,-65.8 38.43,-104.12 5.703,-18.75 10.332,-37.8 14.59,-56.93 1.574,-7.35 3.015,-14.72 4.336,-22.12 0.605,-3.24 1.043,-5.48 1.425,-7.31 0.157,-1.67 0.364,-3.64 0.657,-6.32 6.57,-59.58 45.066,-110 110,-110 54.976,0 116.589,50.28 110,110 -23.606,214 -125.754,407.26 -257.219,574.64 C 123.621,9871.54 65.2227,9931.23 0,9981.27 v -307 c 6.11328,-7.31 12.168,-14.64 18.0781,-21.97 53.0352,-65.87 97.1559,-144.75 133.3359,-222.27" /><path
         id="path20"
         style="fill:#1d191a;fill-opacity:1;fill-rule:nonzero;stroke:none"
         d="m 1581.87,9458.98 c 33.09,137.89 -179.05,196.41 -212.15,58.49 -74.36,-309.83 -324.37,-552.43 -616.673,-692 C 514.141,8711.39 240.059,8685 0,8785.37 V 8548.6 c 631.395,-199.75 1427.77,268.31 1581.87,910.38" /><path
         id="path22"
         style="fill:#1d191a;fill-opacity:1;fill-rule:nonzero;stroke:none"
         d="m 1034.03,7926.46 c 353.55,135.86 709.91,371.7 871.81,727.11 63.58,139.57 94.69,291.17 84.93,444.67 -3.8,59.82 -47.16,110 -110,110 -57.08,0 -113.8,-50.1 -110,-110 11.07,-174.23 -29.49,-313.42 -124.85,-461.18 -44.18,-68.47 -94.24,-124.73 -163.38,-189.61 -71.26,-66.88 -125.51,-106.14 -210.39,-159.52 -168.32,-105.85 -327.646,-170.47 -519.045,-221.46 -182.656,-48.67 -338.3,-68.61 -531.25,-57.75 -20.46,1.15 -40.871,2.98 -61.25,5.07 -1.66,0.18 -13.105,1.57 -18.007,2.12 -10.594,1.54 -21.184,3.18 -31.739,4.97 -37.4215,6.35 -74.3942,15.15 -110.859,25.68 v -227.54 c 339.238,-79.82 714.648,-15.29 1034.03,107.44" /><path
         id="path24"
         style="fill:#1d191a;fill-opacity:1;fill-rule:nonzero;stroke:none"
         d="m 2490.73,9098.24 c -1.97,-141.94 218.03,-141.75 220,0 10.7,768.21 -808.12,1142.76 -1474.93,1144.96 -141.89,0.5 -141.84,-219.5 0,-220 289.49,-1 584.95,-71.96 836.77,-223.14 257.21,-154.42 422.39,-397.94 418.16,-701.82" /><path
         id="path26"
         style="fill:#1d191a;fill-opacity:1;fill-rule:nonzero;stroke:none"
         d="m 1625.02,10477.1 c 292.19,81.8 624.63,38.4 893.13,-107 280.89,-152.2 454.6,-410.59 437.56,-731.89 -3.17,-59.92 52.44,-110 110,-110 62.37,0 106.83,50.15 110,110 43.52,820.59 -910.77,1246.59 -1609.17,1050.99 -136.41,-38.2 -78.4,-250.4 58.48,-212.1" /><path
         id="path28"
         style="fill:#1d191a;fill-opacity:1;fill-rule:nonzero;stroke:none"
         d="m 559.758,10808.9 c 39.644,-135.9 251.961,-78 212.144,58.5 -14.297,49 -12.175,103 -1.422,157.5 13.368,67.8 37.047,134 64.813,195.1 H 598.301 c -49.168,-131.6 -77.91,-276.1 -38.543,-411.1" /><path
         id="path30"
         style="fill:#1d191a;fill-opacity:1;fill-rule:nonzero;stroke:none"
         d="m 1120.28,10773.2 c 48.65,-28.5 124.41,-14.5 150.5,39.4 76.78,158.8 196.63,301.8 342.01,407.4 h -329.1 c -82.17,-89.6 -151.4,-189.9 -202.87,-296.3 -26.11,-54 -15.23,-118.5 39.46,-150.5" /><path
         id="path32"
         style="fill:#1d191a;fill-opacity:1;fill-rule:nonzero;stroke:none"
         d="m 2590.21,11008.1 c -48.84,-34.5 -71.75,-95.3 -39.46,-150.5 28.32,-48.3 101.46,-74.1 150.5,-39.4 140.53,99.4 234.4,242.6 292.39,401.8 h -234.51 c -39.73,-84.7 -94.62,-159.3 -168.92,-211.9" /><path
         id="path34"
         style="fill:#1d191a;fill-opacity:1;fill-rule:nonzero;stroke:none"
         d="m 3292.95,10822.1 c -59.5,-68.7 -127.91,-117 -211.49,-147.9 -56.21,-20.7 -93.75,-73.8 -76.83,-135.3 14.88,-54.1 79,-97.6 135.31,-76.8 219.04,80.8 371.12,244 467.52,453.6 45.33,98.6 79.06,201.2 111.42,304.3 h -229.27 c -19.25,-59.8 -39.35,-117.5 -62.04,-170.6 -35.15,-82.1 -83.61,-168.5 -134.62,-227.3" /><path
         id="path36"
         style="fill:#1d191a;fill-opacity:1;fill-rule:nonzero;stroke:none"
         d="m 2602.11,8726.64 c -8.6,-1.33 -25.69,-3.1 -50.1,-5.11 -22.22,-1.82 -44.53,-2.58 -66.81,-2.93 -21.82,-0.34 -43.64,0.46 -65.41,1.68 -10.7,0.6 -21.38,1.61 -32.06,2.62 -3.53,0.33 -5.91,0.54 -7.76,0.68 -1.41,0.22 -3.02,0.46 -4.99,0.76 -59.26,8.8 -117.99,-13.84 -135.31,-76.83 -14.43,-52.45 17.42,-126.49 76.83,-135.31 773.07,-114.83 1849.62,683.11 1453.17,1525.4 -7.38,15.7 -15.65,30.9 -24.01,46.1 -68.36,124.3 -258.36,13.4 -189.96,-111.02 83.97,-152.7 101.3,-309.08 56.33,-469.4 -45.91,-163.7 -153.94,-305.52 -285.54,-427.05 -128.3,-118.5 -299.3,-220.31 -459.41,-280.29 -85.65,-32.09 -174.6,-55.3 -264.97,-69.3" /><path
         id="path38"
         style="fill:#1d191a;fill-opacity:1;fill-rule:nonzero;stroke:none"
         d="m 4199.12,9254.42 c -50.96,-172.26 -125.96,-334.54 -220.79,-488.21 -212.59,-344.48 -634.59,-445.3 -1016.87,-506.86 -59.27,-9.54 -91.39,-82.32 -76.82,-135.31 17.19,-62.46 76.17,-86.35 135.32,-76.82 228.28,36.75 452.57,85.98 663.54,183.3 203.86,94.04 373.02,243.52 490.68,434.19 106.23,172.13 188.98,363.43 244.78,557.66 55.11,191.78 82.86,403.46 1.67,591.36 -23.8,55.08 -103.54,66.97 -150.5,39.46 -56.34,-33 -63.25,-95.46 -39.47,-150.5 -4.59,10.9 -4.57,10.3 0.08,-1.8 3.55,-9.7 6.28,-19.68 9.03,-29.63 1.75,-6.33 8.95,-44.54 8.35,-37.26 5.17,-41.46 4.67,-83.55 2.24,-125.17 -4.62,-79.04 -25.82,-168.47 -51.24,-254.41" /><path
         id="path40"
         style="fill:#1d191a;fill-opacity:1;fill-rule:nonzero;stroke:none"
         d="m 1675.25,6558.38 c 56.34,-33 114.44,-8.28 150.5,39.47 173.73,230.02 336.5,476.24 414.23,756.95 81.6,294.69 34.67,592.09 -84.24,869 -23.67,55.14 -103.62,66.93 -150.5,39.47 -56.41,-33.05 -63.12,-95.4 -39.46,-150.5 98.4,-229.18 124.43,-474.24 58.2,-713.41 -70.82,-255.75 -230.27,-481.38 -388.19,-690.48 -36.23,-47.97 -7.69,-122.87 39.46,-150.5" /><path
         id="path42"
         style="fill:#1d191a;fill-opacity:1;fill-rule:nonzero;stroke:none"
         d="m 2357.96,6290.6 c 38.91,-38.91 118,-46.85 155.57,0 172.64,215.29 313.66,455.58 386.39,723.5 77.47,285.44 54.4,581.37 -69.22,849.72 -25.08,54.47 -102.59,67.53 -150.49,39.47 -55.42,-32.47 -64.56,-96.04 -39.47,-150.5 206.17,-447.59 5.73,-946.85 -282.78,-1306.63 -37.47,-46.73 -45.84,-109.72 0,-155.56" /><path
         id="path44"
         style="fill:#1d191a;fill-opacity:1;fill-rule:nonzero;stroke:none"
         d="m 1250.7,6103.65 c 120.98,-120.07 259.24,-227.39 406,-314.09 168.93,-99.79 355.14,-146.68 551.13,-144.01 218.31,2.97 431.96,61.63 647.13,91.78 59.49,8.34 91.16,83.23 76.84,135.32 -17.42,63.34 -75.99,85.14 -135.32,76.82 -184.7,-25.88 -366.44,-72.53 -553.15,-82.69 -171.13,-9.31 -327.67,27.06 -475.59,112.74 -123.91,71.77 -237.05,161.29 -340.8,259.65 -49.17,46.62 -103.4,103.23 -141.26,152.29 -20.4,26.44 -39.1,54.14 -56.55,82.6 -8.09,13.21 -15.43,26.84 -22.59,40.56 -2.47,4.83 -4.78,9.72 -7.11,14.61 2.55,-4.88 -7.15,17.3 -7.55,18.38 -20.64,56.23 -73.85,93.73 -135.32,76.83 -54.17,-14.9 -97.497,-78.98 -76.826,-135.31 54.906,-149.54 159.116,-274.46 270.966,-385.48" /><path
         id="path46"
         style="fill:#1d191a;fill-opacity:1;fill-rule:nonzero;stroke:none"
         d="m 2629.98,5137.36 c 135.47,40.81 77.71,253.17 -58.5,212.14 -69.18,-20.84 -139.73,-35.96 -211.1,-47.14 -5.21,-0.8 -10.44,-1.55 -15.66,-2.31 6.87,1.06 -20.23,-2.58 -20.99,-2.68 -18.78,-2.26 -37.6,-4.08 -56.43,-5.8 -42.6,-3.9 -85.35,-6.12 -128.11,-7.44 -178.06,-5.51 -340.13,9.52 -505.89,45.79 -171.63,37.56 -314.96,89.68 -460.78,181.58 -126.02,79.41 -226.309,184.96 -291.719,327.43 -25.02,54.5 -102.649,67.49 -150.496,39.46 -55.469,-32.49 -64.485,-96.01 -39.465,-150.5 155.129,-337.91 514.1,-522.03 859.95,-604.61 346.74,-82.81 735.89,-89.34 1079.19,14.08" /><path
         id="path48"
         style="fill:#1d191a;fill-opacity:1;fill-rule:nonzero;stroke:none"
         d="m 36.9453,5844.16 c 114.2777,276.89 244.8517,550.57 474.2537,750.23 228.43,198.81 549.681,228.85 828.841,312.89 135.49,40.78 77.72,253.14 -58.48,212.13 -158.29,-47.64 -320.806,-79.7 -478.591,-129 C 638.059,6938.88 487.961,6861.38 355.637,6749.95 203.906,6622.19 92.0898,6460.46 0,6286.82 v -496.51 c 15.6836,14.1 28.2422,32.76 36.9453,53.85" /><path
         id="path50"
         style="fill:#1d191a;fill-opacity:1;fill-rule:nonzero;stroke:none"
         d="m 1375.8,7613.32 c 0,55.11 -50.25,116.4 -110,110 C 829.16,7676.51 364.063,7556.94 0,7300.94 v -276.97 c 339.855,301.77 833.262,432.99 1265.8,479.35 59.6,6.38 110,45.2 110,110" /><path
         id="path52"
         style="fill:#1d191a;fill-opacity:1;fill-rule:nonzero;stroke:none"
         d="m 4935.63,7017.82 c 75.39,-119.68 265.82,-9.38 189.96,111.04 -305.36,484.73 -931.52,733.42 -1489.14,635.52 -59.13,-10.38 -91.59,-81.7 -76.84,-135.31 17.02,-61.86 76.32,-87.19 135.31,-76.83 449.65,78.94 990.03,-136.49 1240.71,-534.42" /><path
         id="path54"
         style="fill:#1d191a;fill-opacity:1;fill-rule:nonzero;stroke:none"
         d="m 4355.64,8013.29 c 237.39,-0.52 476.3,-23.02 691.7,-130.59 98.15,-49.01 165.82,-129.76 239.8,-208.7 78.02,-83.26 161.84,-155.11 269.21,-196.75 55.97,-21.72 120.62,23.43 135.31,76.82 17.12,62.26 -20.98,113.65 -76.84,135.32 -81.3,31.53 -150.97,117.25 -212.36,183.41 -82.26,88.66 -165.83,162.55 -275.68,215.35 -240.71,115.7 -507.09,144.56 -771.14,145.14 -141.88,0.31 -141.85,-219.69 0,-220" /><path
         id="path56"
         style="fill:#1d191a;fill-opacity:1;fill-rule:nonzero;stroke:none"
         d="m 4620.64,9063.76 c -27.94,-47.7 -15.13,-125.68 39.47,-150.49 201.3,-91.51 276.46,-299.74 290.5,-504.99 4.08,-59.8 46.94,-110 110,-110 56.86,0 114.09,50.11 110,110 -19.07,278.92 -128.54,571.8 -399.47,694.95 -54.58,24.81 -117.92,16.15 -150.5,-39.47" /><path
         id="path58"
         style="fill:#1d191a;fill-opacity:1;fill-rule:nonzero;stroke:none"
         d="m 5123.39,9596 c -45.69,38.73 -110.58,44.99 -155.57,0 -39.76,-39.77 -45.78,-116.76 0,-155.56 345.56,-292.89 565.42,-709.94 567.76,-1167.16 0.72,-141.83 220.72,-141.9 220,0 -2.61,511.51 -244,993.69 -632.19,1322.72" /><path
         id="path60"
         style="fill:#1d191a;fill-opacity:1;fill-rule:nonzero;stroke:none"
         d="m 3392.9,5441.21 c -103.13,-97.78 52.7,-253.09 155.57,-155.56 210.46,199.53 285.14,537.23 267.47,817.46 -10.23,162.26 -57.01,313.73 -131.84,463.1 -66.81,133.38 -157.87,260.18 -197.33,401.38 -38.14,136.43 -250.4,78.41 -212.15,-58.48 38.49,-137.69 115.61,-261.03 183.51,-385.52 32.55,-59.68 63.78,-120.32 87.73,-184.02 12.73,-33.85 22.68,-68.63 31,-103.79 3.68,-15.54 6.95,-31.55 8.81,-47.39 1.52,-13.71 3.48,-27.35 5.89,-40.92 2.11,-13.53 2.43,-15.82 0.98,-6.86 15.43,-128.35 2.21,-254.52 -28.93,-377.36 -30.88,-121.86 -82.89,-238.79 -170.71,-322.04" /><path
         id="path62"
         style="fill:#1d191a;fill-opacity:1;fill-rule:nonzero;stroke:none"
         d="m 4350.2,5851.81 c -0.61,-6.3 -1.27,-12.6 -1.98,-18.9 -0.25,-2.39 -0.44,-4.14 -0.58,-5.6 l -0.27,-1.78 c -7.26,-50.4 -18.89,-100.51 -37.8,-147.87 -22.26,-55.79 23.86,-120.75 76.84,-135.32 62.67,-17.24 113.1,21.19 135.31,76.83 45.23,113.38 53.94,242.77 54.55,363.62 0.76,154.72 -19.81,311.28 -55.89,461.59 -58.76,244.84 -196.17,583.74 -480.48,630.04 -59.12,9.63 -118.14,-14.44 -135.31,-76.83 -14.59,-53.06 17.58,-125.66 76.84,-135.31 10.52,-1.72 20.86,-3.86 31.21,-6.46 4.94,-1.25 25.47,-9.08 28.14,-9.63 15.49,-7.62 30.21,-16.73 44.32,-26.65 -3.13,1.8 15.2,-12.82 18.44,-15.75 10.75,-9.78 20.73,-20.37 30.52,-31.09 7.17,-7.84 13.89,-16.06 20.53,-24.34 -8.69,10.49 14.87,-21.71 18.15,-26.64 16.39,-24.65 30.79,-50.58 44.38,-76.84 16.77,-32.4 23.88,-49.51 31.64,-68.98 26.03,-65.2 45.76,-132.83 62.13,-201.04 32.94,-137.27 45.14,-245.97 45.38,-392.07 0.04,-30.72 -1.09,-61.43 -2.97,-92.08 -0.78,-12.98 -1.91,-25.94 -3.1,-38.9" /><path
         id="path64"
         style="fill:#1d191a;fill-opacity:1;fill-rule:nonzero;stroke:none"
         d="m 4170.66,4182.97 c 70.57,-123 260.69,-12.23 189.97,111.03 -275.78,480.69 -851.36,859.94 -1414.17,650.52 -56.13,-20.89 -93.77,-73.66 -76.82,-135.31 14.85,-53.98 79.06,-97.76 135.32,-76.83 471.04,175.28 935.24,-147.71 1165.7,-549.41" /><path
         id="path66"
         style="fill:#1d191a;fill-opacity:1;fill-rule:nonzero;stroke:none"
         d="m 3700.44,3909.25 c -1.28,1.58 -4.67,5.92 -7.12,9.07 -3.91,5.14 -7.8,10.28 -11.67,15.43 -14.29,19.04 -28.31,38.26 -42.34,57.48 -60.11,82.32 -119.51,165.16 -183.06,244.89 -159.88,200.61 -434.38,325.87 -689.77,288.43 -59.43,-8.72 -91.23,-82.95 -76.83,-135.32 17.35,-63.07 76.03,-85.51 135.31,-76.82 121.86,17.86 241.99,-42.71 340.61,-106.97 34.86,-22.72 67.06,-46.61 95.06,-77.29 11.79,-12.94 22.91,-26.49 33.98,-40.05 6.27,-7.68 12.4,-15.47 18.53,-23.26 1.41,-1.79 2.49,-3.19 3.44,-4.4 3.97,-5.2 7.94,-10.4 11.88,-15.62 53.57,-70.69 104.65,-143.22 157.52,-214.44 34.31,-46.23 86.03,-137.15 150.47,-147.94 59.08,-9.9 118.2,14.63 135.31,76.82 12.37,44.99 -8.81,103.28 -51.34,126.34 -6.94,7.63 -13.51,15.64 -19.98,23.65" /><path
         id="path68"
         style="fill:#1d191a;fill-opacity:1;fill-rule:nonzero;stroke:none"
         d="m 4705.62,4842.94 c 143.87,222.58 349.34,381.61 593.57,463.6 257.51,86.44 525.08,96.59 796.37,96.88 141.86,0.14 141.87,220.14 0,220 -295.14,-0.31 -598.56,-15.97 -879.75,-113.22 -293.78,-101.61 -531.86,-295.87 -700.16,-556.23 -77.26,-119.54 113.26,-229.71 189.97,-111.03" /><path
         id="path70"
         style="fill:#1d191a;fill-opacity:1;fill-rule:nonzero;stroke:none"
         d="m 6275.55,5083.45 c -508.52,-1 -1138.96,-123.34 -1369.92,-639.46 -24.49,-54.73 -16.37,-117.78 39.47,-150.49 47.47,-27.82 125.99,-15.29 150.5,39.46 197.88,442.21 737.8,529.62 1179.95,530.49 141.85,0.28 141.88,220.28 0,220" /><path
         id="path72"
         style="fill:#1d191a;fill-opacity:1;fill-rule:nonzero;stroke:none"
         d="m 4800.62,6353.38 c 0,-65.65 50.52,-102.49 110,-110 231.8,-29.27 415.92,-256.78 534.99,-440.49 76.83,-118.57 267.37,-8.41 189.96,111.03 -168.38,259.82 -403.23,508.83 -724.95,549.46 -59.64,7.53 -110,-55.74 -110,-110" /><path
         id="path74"
         style="fill:#1d191a;fill-opacity:1;fill-rule:nonzero;stroke:none"
         d="m 5380.07,6648.38 c 278.89,-167.25 639.68,-359.87 714.4,-699.22 30.51,-138.54 242.6,-79.78 212.15,58.48 -89.04,404.3 -487.73,634.14 -815.52,830.7 -121.98,73.15 -232.53,-117.1 -111.03,-189.96" /><path
         id="path76"
         style="fill:#1d191a;fill-opacity:1;fill-rule:nonzero;stroke:none"
         d="m 5989.48,6759.11 c 30.76,-138.47 242.85,-79.74 212.15,58.49 -53.57,241.18 -60.67,517.01 -25.38,768.89 36.39,259.71 117.17,531.25 297.08,714 99.57,101.15 -55.92,256.79 -155.57,155.57 -208.52,-211.82 -307.55,-509.13 -351.62,-797.18 -45.46,-297.19 -41.98,-605.67 23.34,-899.77" /><path
         id="path78"
         style="fill:#1d191a;fill-opacity:1;fill-rule:nonzero;stroke:none"
         d="m 7298.28,8306.07 c -39.14,39.14 -117.65,46.56 -155.57,0 -357.18,-438.67 -527.38,-999.21 -497.18,-1562.71 3.2,-59.85 47.6,-110 110,-110 57.53,0 113.21,50.07 110,110 -26.92,502.08 112.46,1013.79 432.75,1407.14 37.82,46.45 45.61,109.96 0,155.57" /><path
         id="path80"
         style="fill:#1d191a;fill-opacity:1;fill-rule:nonzero;stroke:none"
         d="m 6713.31,6326.17 c -47.27,36.79 -109.27,46.29 -155.57,0 -38.44,-38.45 -47.4,-118.67 0,-155.57 28.86,-22.46 55.42,-47.08 80.07,-74.1 27.27,-29.88 32.31,-37.98 58.35,-81.75 8.55,-14.36 16.24,-29.21 23.74,-44.13 3.32,-6.63 6.36,-13.4 9.44,-20.15 0.43,-1.35 7.34,-17.34 7.89,-18.72 15.12,-38.78 26.52,-78.95 35.97,-119.46 33.34,-143.08 26.23,-325.35 -3.75,-472.12 -35.81,-175.27 -91.45,-314.46 -189.1,-461.63 -26.76,-40.34 -32.95,-47.7 -59.92,-79.31 -26.61,-31.17 -55.68,-60.17 -86.34,-87.36 -5.02,-4.4 -10.1,-8.74 -15.23,-13.01 -0.99,-0.83 -9.9,-7.77 -13.82,-10.89 -14.12,-10.42 -28.69,-20.22 -43.52,-29.6 -16.29,-10.3 -33.23,-19.53 -50.37,-28.32 -5.87,-3.01 -11.84,-5.79 -17.83,-8.55 l -1.32,-0.63 1.32,0.63 c 4.17,2.06 -14.53,-6.02 -17.01,-6.96 -56.04,-21.18 -93.85,-73.44 -76.84,-135.31 14.8,-53.77 79.16,-98.05 135.32,-76.83 361.7,136.7 570.17,518.45 646.8,879.29 75.29,354.49 39.63,804.76 -268.28,1044.48" /><path
         id="path82"
         style="fill:#1d191a;fill-opacity:1;fill-rule:nonzero;stroke:none"
         d="m 6293.32,4621.5 -1.32,-0.63 1.32,0.63" /><path
         id="path84"
         style="fill:#1d191a;fill-opacity:1;fill-rule:nonzero;stroke:none"
         d="m 7119.99,4248.5 c 49.5,-29.01 123.23,-13.89 150.5,39.46 149.63,292.71 278.63,595.27 320.62,923.6 42.91,335.56 -45.69,668.27 -215.63,957.35 -71.83,122.18 -262.02,11.53 -189.96,-111.04 153.56,-261.23 220.97,-544.53 185.59,-846.31 -33.52,-285.99 -161.05,-559.15 -290.58,-812.57 -27.3,-53.39 -14.4,-118.95 39.46,-150.49" /><path
         id="path86"
         style="fill:#1d191a;fill-opacity:1;fill-rule:nonzero;stroke:none"
         d="m 1842.12,4423.82 c 67.65,114.88 151.63,198.86 274.16,259.66 53.68,26.63 68.19,101.46 39.46,150.5 -31.81,54.31 -96.78,66.11 -150.5,39.46 -301.52,-149.61 -466.23,-481.99 -512.61,-802.83 -47.17,-326.21 3.08,-685.73 220.36,-944.86 38.56,-45.99 115.97,-39.6 155.56,0 45.16,45.16 38.49,109.67 0,155.57 -12.43,14.83 -23.26,29.23 -42.73,59.91 -18.77,29.57 -34.84,60.79 -49.6,92.52 -3.23,7.39 -4.68,10.6 -4.36,9.68 -1.85,4.54 -3.72,9.08 -5.48,13.65 -6.7,16.97 -12.62,34.23 -18.35,51.54 -11.74,35.4 -20.96,71.59 -28.97,108 -26.07,118.64 -29.68,289.08 -12.6,407.25 21.66,149.75 63.57,277.51 135.66,399.95" /><path
         id="path88"
         style="fill:#1d191a;fill-opacity:1;fill-rule:nonzero;stroke:none"
         d="m 2462.95,3350.74 c 102.48,-98.01 258.26,57.35 155.57,155.57 -112.8,107.88 -207.17,234.6 -254.29,384.87 -48.38,154.31 -28.54,314.58 46.49,456.78 66.16,125.36 -123.74,236.55 -189.96,111.03 -98.46,-186.61 -127.93,-391.37 -76.94,-596.85 48.96,-197.31 174.11,-372.69 319.13,-511.4" /><path
         id="path90"
         style="fill:#1d191a;fill-opacity:1;fill-rule:nonzero;stroke:none"
         d="m 3192.25,3233.49 c 52.17,208.96 4.7,422.1 -91.56,610.53 -27.25,53.36 -101,68.46 -150.49,39.47 -53.87,-31.56 -66.74,-97.1 -39.47,-150.5 38.38,-75.13 65.26,-154.03 79.27,-240.18 0.21,-1.96 0.55,-4.9 1.04,-9.11 1.24,-11.47 1.9,-22.99 2.55,-34.5 1.3,-22.5 0.89,-45.07 -0.09,-67.58 -0.3,-6.5 -4.32,-43.61 -3.48,-40.14 -3.14,-20.2 -7.59,-40.17 -12.54,-59.99 -4.35,-17.43 -9.82,-34.55 -15.55,-51.56 -3.02,-8.97 -6.43,-17.82 -9.87,-26.65 4.43,11.65 -7.1,-16.08 -7.45,-16.85 -16.7,-36.22 -37.09,-70.64 -59.1,-103.84 -36.46,-55 -93.92,-116.53 -155.04,-170.72 -114.43,-101.43 -284.24,-194.91 -426.96,-250.31 -82.47,-32 -167.43,-57.49 -253.53,-77.65 -89.62,-20.98 -146.02,-29.35 -229.21,-35.34 -59.78,-4.3 -110,-46.77 -110,-110 0,-56.7 50.13,-114.31 110,-110 387.74,27.92 781.49,176.16 1073.94,435.43 139.97,124.09 251.89,286.7 297.54,469.49" /><path
         id="path92"
         style="fill:#1d191a;fill-opacity:1;fill-rule:nonzero;stroke:none"
         d="m 3730.68,3263.53 c -5.87,141.34 -225.89,141.91 -220,0 11.85,-285.41 -63.72,-550.82 -232.34,-782.93 -157.6,-216.95 -403.94,-375.88 -661.86,-460.93 -134.07,-44.21 -76.63,-256.7 58.5,-212.14 313.26,103.3 585.91,288.04 785.55,551.54 194.62,256.89 283.43,584.59 270.15,904.46" /><path
         id="path94"
         style="fill:#1d191a;fill-opacity:1;fill-rule:nonzero;stroke:none"
         d="m 641.965,4785.35 c 131.797,-30.44 260.086,-75.45 384.595,-127.96 55.37,-23.35 120.98,24.69 135.32,76.82 17.48,63.53 -21.63,112.04 -76.82,135.32 -266.759,112.5 -561.173,193.54 -853.068,171.78 C 152.988,5035.42 75.1055,5021.37 0,4998.39 v -232.55 c 82.1875,33.97 171.133,51.74 255.977,57.12 139.296,8.84 255.859,-7.56 385.988,-37.61" /><path
         id="path96"
         style="fill:#1d191a;fill-opacity:1;fill-rule:nonzero;stroke:none"
         d="m 328.113,4147.81 c 127.024,44.71 243.071,66.38 368.989,70.37 31.289,0.99 62.605,0.23 93.855,-1.45 15.254,-0.82 30.481,-2.24 45.676,-3.76 6.062,-0.74 9.566,-1.14 10.789,-1.26 5.195,-0.78 10.398,-1.55 15.586,-2.43 56.152,-9.13 111.101,-24.91 163.552,-46.87 55.43,-23.2 120.95,24.58 135.32,76.83 17.45,63.41 -21.56,112.18 -76.82,135.31 -260.939,109.22 -579.638,70.95 -838.939,-23 C 161.66,4320.95 78.0469,4282.16 0,4234.72 v -269.07 c 5.23438,4.56 10.5273,9.1 15.9258,13.61 80.7344,67.41 208.1762,131.93 312.1872,168.55" /><path
         id="path98"
         style="fill:#1d191a;fill-opacity:1;fill-rule:nonzero;stroke:none"
         d="m 391.484,2847.95 c 176.231,265.7 255.938,593.64 234.356,910.56 -4.07,59.8 -46.953,110 -110,110 -56.875,0 -114.082,-50.11 -110,-110 19.121,-280.78 -45.938,-550.2 -196.914,-788.09 C 151.184,2879.43 80.332,2797.02 0,2724.71 v -277.3 c 153.086,106.78 285.82,241.23 391.484,400.54" /><path
         id="path100"
         style="fill:#1d191a;fill-opacity:1;fill-rule:nonzero;stroke:none"
         d="m 869.238,2210.4 c 251.602,368.98 354.392,827.73 353.062,1269.51 -0.23,78 -4.52,155.94 -11.49,233.6 -5.36,59.7 -45.99,110 -110,110 -55.9,0 -115.372,-50.18 -109.997,-110 C 1029.67,3280.68 970.422,2840.07 764.465,2461.14 593.563,2146.69 326.719,1911.13 0,1778.02 V 1543.3 c 352.234,124.18 655.027,352.95 869.238,667.1" /><path
         id="path102"
         style="fill:#1d191a;fill-opacity:1;fill-rule:nonzero;stroke:none"
         d="M 678.066,691.5 C 481.914,848.5 242.473,920.602 0,969.902 v -222.8 c 186.609,-39 372.859,-95.5 522.5,-211.204 110.188,-85.199 187.305,-195.996 240.664,-324 C 792.305,142.102 817.512,70.6992 844.336,0 H 1079.53 C 1035.64,102.5 1001.87,209.301 957.891,311.898 894.387,460 804.512,590.301 678.066,691.5" /><path
         id="path104"
         style="fill:#1d191a;fill-opacity:1;fill-rule:nonzero;stroke:none"
         d="m 485.84,1408.63 c -59.902,3.77 -110,-52.88 -110,-110 0,-62.8 50.176,-106.23 110,-110.03 C 823.887,1167.4 1117.58,1013 1346.33,769.699 1549.31,553.902 1690.11,280.602 1787.93,0 h 231.87 c -111.68,342.602 -278.78,671 -527.06,935 -265.34,282.2 -620.677,449.37 -1006.9,473.63" /><path
         id="path106"
         style="fill:#1d191a;fill-opacity:1;fill-rule:nonzero;stroke:none"
         d="m 1501.31,2188.57 c -56.41,33.05 -114.36,8.23 -150.5,-39.46 -73.56,-97.04 -131.72,-204.97 -160.87,-323.83 -30.45,-124.15 -22.62,-251.31 -0.21,-375.9 10.62,-59.07 81.52,-91.62 135.31,-76.83 61.69,16.97 87.43,76.36 76.84,135.32 -16.45,91.41 -18.15,184.11 3.61,272.79 23.47,95.7 76.35,179.66 135.28,257.42 36.32,47.9 7.63,122.91 -39.46,150.49" /><path
         id="path108"
         style="fill:#1d191a;fill-opacity:1;fill-rule:nonzero;stroke:none"
         d="M 2010.78,2089.11 C 1845.71,1770.87 1783,1393.49 1879.69,1044.4 c 37.82,-136.498 250.08,-78.502 212.15,58.5 -80.73,291.43 -29.11,609.08 108.9,875.18 65.22,125.73 -124.62,237.01 -189.96,111.03" /><path
         id="path110"
         style="fill:#1d191a;fill-opacity:1;fill-rule:nonzero;stroke:none"
         d="m 2836.06,669.398 c -14.17,325.704 -133.71,648.312 -404.8,844.202 -48.7,35.19 -122.4,8.51 -150.5,-39.46 -32.52,-55.51 -9.03,-115.46 39.46,-150.5 94.21,-68.08 166.63,-170.04 219.3,-289.74 47.78,-108.599 71.65,-252.099 77.09,-377.201 C 2626.41,431.402 2586.57,201.301 2492.64,0 h 238.78 c 81.1,212.301 114.36,446 104.64,669.398" /><path
         id="path112"
         style="fill:#1d191a;fill-opacity:1;fill-rule:nonzero;stroke:none"
         d="m 3581.39,713.301 c -51.03,311.399 -190.45,666.509 -490.16,815.299 -53.71,26.67 -118.69,14.85 -150.5,-39.46 -28.73,-49.04 -14.21,-123.85 39.47,-150.5 29.89,-14.84 58.14,-31.97 85.24,-51.45 -8.95,7.19 -8.46,6.81 1.47,-1.15 7.86,-6.28 15.39,-12.95 22.91,-19.61 12.68,-11.21 24.61,-23.22 36.36,-35.37 30.03,-31.06 36.11,-39.86 54.87,-66.46 20.8,-29.4 39.15,-60.5 56.32,-92.1 67.04,-123.398 108.79,-276.801 133.85,-429.699 10.4,-63.5 17.81,-148.899 20.84,-227.199 3.1,-80 1.19,-160.102 -4.64,-239.903 C 3383.22,118.199 3376.23,59.5 3365.12,0 h 225.24 c 39.55,235.5 28.63,483.801 -8.97,713.301" /><path
         id="path114"
         style="fill:#1d191a;fill-opacity:1;fill-rule:nonzero;stroke:none"
         d="m 4268.64,1635.04 c 242.9,57.88 457.89,203.24 629.77,380.77 98.67,101.92 -56.74,257.65 -155.57,155.57 -148.41,-153.3 -324.3,-271.49 -532.68,-324.2 -210.96,-53.36 -431.65,-20.28 -635.24,52.5 -56.49,20.2 -120.3,-22.29 -135.31,-76.83 -16.8,-61.08 20.43,-115.14 76.84,-135.31 241.97,-86.52 500.87,-112.39 752.19,-52.5" /><path
         id="path116"
         style="fill:#1d191a;fill-opacity:1;fill-rule:nonzero;stroke:none"
         d="m 5121.37,1389.7 c -106.56,-29.88 -212.89,-60.39 -320.4,-86.68 -129.17,-31.58 -256.54,-56.31 -379.51,-67.23 -127.24,-11.31 -245.62,-9.22 -357.83,18.46 -65.07,16.05 -94.27,28.21 -149.66,61.56 -38.6,23.24 -83.77,64.78 -108.32,98.34 -35.32,48.29 -94.75,72.11 -150.49,39.46 -47.75,-27.96 -74.95,-102 -39.47,-150.5 356.97,-488.008 1084.97,-259.91 1564.15,-125.51 136.4,38.2 78.38,250.5 -58.47,212.1" /><path
         id="path118"
         style="fill:#1d191a;fill-opacity:1;fill-rule:nonzero;stroke:none"
         d="m 4345.63,628.102 c 35.52,48.5 8.24,122.597 -39.47,150.5 -55.77,32.699 -115.12,8.8 -150.5,-39.403 C 3994.45,519.199 3968.67,258.699 3998.13,0 h 220.46 c -28.65,219.301 -11.62,439 127.04,628.102" /><path
         id="path120"
         style="fill:#1d191a;fill-opacity:1;fill-rule:nonzero;stroke:none"
         d="m 5095.6,718.102 c 71.28,123 -118.86,233.699 -189.97,111.097 C 4757.71,574 4720.71,284.301 4757.52,0 h 222.12 c -37.26,245.402 -13.05,495.602 115.96,718.102" /><path
         id="path122"
         style="fill:#1d191a;fill-opacity:1;fill-rule:nonzero;stroke:none"
         d="m 3920.66,2388.56 c 137.2,-3.2 242.17,-111.5 327.2,-207.76 94.1,-106.53 249.11,49.66 155.57,155.56 -126.45,143.15 -283.68,267.56 -482.77,272.2 -141.95,3.32 -141.63,-216.69 0,-220" /><path
         id="path124"
         style="fill:#1d191a;fill-opacity:1;fill-rule:nonzero;stroke:none"
         d="m 4564.55,2589.32 c 22.3,-55.61 72.57,-94.09 135.31,-76.83 52.91,14.55 99.18,79.57 76.84,135.31 -123.86,308.95 -402.17,502.39 -721.8,571.8 -58.53,12.72 -118.77,-16.69 -135.31,-76.82 -15.22,-55.38 18.22,-122.59 76.84,-135.31 236.62,-51.39 473.77,-182.78 568.12,-418.15" /><path
         id="path126"
         style="fill:#1d191a;fill-opacity:1;fill-rule:nonzero;stroke:none"
         d="m 5257.7,3869.19 c 82.87,16.95 134.55,24.3 209.94,31.51 69.06,6.61 138.51,9.3 207.87,7.67 30.63,-0.72 61.21,-2.79 91.7,-5.87 5.08,-0.51 8.2,-0.8 10.21,-0.96 1.74,-0.33 4.9,-0.88 10.52,-1.77 12.87,-2.03 25.65,-4.6 38.39,-7.35 58.55,-12.64 118.75,16.64 135.31,76.83 15.22,55.32 -18.21,122.66 -76.84,135.31 -136.73,29.52 -278.49,28.66 -417.16,16.14 -173.34,-15.64 -345.45,-49.68 -511.33,-102.32 -286.16,-90.82 -636.27,-259.4 -721.74,-575.62 -37.07,-137.16 175.17,-195.29 212.15,-58.48 3.04,11.26 6.44,22.33 10.23,33.37 0.76,2.11 1.61,4.19 2.41,6.29 -1.25,-3.8 5.82,12.69 7.35,15.78 6.59,13.34 14.26,26.12 22.12,38.74 2.63,4.23 19.63,27.66 19.23,27.83 18.5,22.9 39.08,44.07 60.48,64.23 12.09,11.38 24.77,22.11 37.55,32.68 3.17,2.52 5.28,4.2 6.55,5.23 6.7,5.03 13.45,9.99 20.26,14.88 126.8,90.92 251.43,141.52 393.27,186.54 75.98,24.11 153.46,43.37 231.53,59.34" /><path
         id="path128"
         style="fill:#1d191a;fill-opacity:1;fill-rule:nonzero;stroke:none"
         d="m 5790.8,3351.58 c 49.88,-12.19 102.48,-30.56 139.45,-48 21.88,-10.32 42.95,-22.22 63.65,-34.72 10.16,-6.13 19.99,-12.83 29.79,-19.52 6.45,-4.49 12.79,-9.1 19.05,-13.83 -6.98,5.06 -5.31,3.47 5.03,-4.77 45.88,-38.5 110.43,-45.14 155.57,0 39.61,39.62 45.98,116.99 0,155.57 -197.73,165.94 -460.84,221.57 -714.1,214.32 -254.22,-7.26 -518.63,-79.36 -716.4,-244.32 -46.09,-38.45 -39.52,-116.05 0,-155.57 45.24,-45.23 109.57,-38.37 155.57,0 18.53,15.47 16.3,13.51 41.03,30.12 19.56,13.14 40.05,24.85 60.72,36.14 48.88,26.69 81.12,39.04 134.23,56.68 105.12,34.93 204.77,51.22 311.29,56.43 111.43,5.45 211.47,-3.21 315.12,-28.53" /><path
         id="path130"
         style="fill:#1d191a;fill-opacity:1;fill-rule:nonzero;stroke:none"
         d="m 5905.05,1113.7 c 48.22,-35.9 122.71,-8 150.5,39.4 32.83,56.1 8.54,114.81 -39.47,150.51 -209.72,155.99 -344.36,410.39 -422.34,662.06 -81.98,264.57 -108.76,541.09 -78.14,817.88 6.61,59.73 -55.04,110 -110,110 -64.96,0 -103.41,-50.43 -110,-110 -33.35,-301.49 2.75,-614.59 94.43,-903.25 95.16,-299.57 260.36,-577.25 515.02,-766.6" /><path
         id="path132"
         style="fill:#1d191a;fill-opacity:1;fill-rule:nonzero;stroke:none"
         d="m 6335.23,2129.15 c -78.01,142.75 -131.08,299.36 -163.6,458.66 -12,58.77 -80.5,91.91 -135.32,76.82 -60.67,-16.69 -88.81,-76.61 -76.83,-135.31 37.26,-182.45 103.38,-360.41 192.66,-523.77 89.81,-164.34 215.89,-321.57 382.87,-411.92 124.78,-67.52 235.83,122.43 111.03,189.96 -137.68,74.51 -234.33,205.63 -310.81,345.56" /><path
         id="path134"
         style="fill:#1d191a;fill-opacity:1;fill-rule:nonzero;stroke:none"
         d="M 7097.72,1421.41 C 6997.14,1299.25 6904.46,1170 6795.74,1054.7 6695.08,948 6587.87,874.602 6448.9,832.199 c -163.24,-49.898 -342.29,-55.597 -511.19,-40 -84.07,7.801 -168.9,27.102 -249.56,55.301 -66.3,23.199 -128.15,59.602 -174.78,108.902 -97.69,103.298 -253,-52.601 -155.57,-155.504 134.19,-141.796 334.6,-196.796 521.98,-221.796 198.35,-26.602 407.67,-16.801 601.63,33.597 167.05,43.403 314.25,133.903 437.44,253.5 124.58,120.903 224.39,266.001 334.44,399.641 38.08,46.24 45.44,110.13 0,155.57 -39.32,39.31 -117.4,46.34 -155.57,0" /><path
         id="path136"
         style="fill:#1d191a;fill-opacity:1;fill-rule:nonzero;stroke:none"
         d="m 7224.88,296.402 c 27.6,28.5 52.15,59.797 75.6,91.7 35.58,48.5 8.19,122.597 -39.46,150.5 -55.82,32.8 -115.07,8.8 -150.5,-39.403 -0.99,-1.398 -1.78,-2.398 -2.43,-3.398 -5.13,-6.403 -10.49,-12.602 -15.85,-18.801 -11.17,-12.898 -23.03,-25.199 -35.06,-37.398 -23.63,-23.801 -49.05,-45.801 -75.16,-66.903 -2.39,-1.801 -13.41,-10.5 -14.89,-11.597 -7.85,-5.801 -15.83,-11.403 -23.81,-17.102 -16.35,-11.5 -33.1,-22.5 -49.94,-33.301 -38.09,-24.5 -77.58,-46.597 -117.68,-67.597 -84.81,-44.301 -138.02,-65.7 -227.67,-96.301 -89.22,-30.399 -180.94,-53.4026 -273.77,-69.6018 -11.06,-1.8984 -22.15,-3.5976 -33.24,-5.3008 -3.32,-0.4961 -5.64,-0.8984 -7.53,-1.1992 -1.89,-0.1992 -4.19,-0.5 -7.5,-0.8984 C 6204,67 6181.93,65 6159.85,63.1992 c -43.31,-3.5 -86.78,-4.5976 -130.22,-4 -21.21,0.3008 -42.4,1.4024 -63.57,2.9024 -10.43,0.6992 -20.85,1.6992 -31.27,2.6992 -1.49,0.1992 -15.06,1.8008 -19.4,2.3008 C 5874.74,73 5834.55,82 5795.1,93.3984 c -18.77,5.4024 -37.23,11.9026 -55.52,18.8006 -2.82,1 -4.74,1.703 -6.28,2.301 -0.95,0.402 -1.83,0.801 -3.04,1.301 -8.75,3.801 -17.32,8.101 -25.89,12.301 -17.01,8.3 -33.42,17.796 -49.58,27.597 -8.03,4.903 -15.83,10.199 -23.62,15.5 -1.54,1 -10.76,7.801 -14.15,10.203 -27.31,22.098 -52.12,47.098 -74.74,73.797 -1.01,1.203 -1.8,2.203 -2.56,3.102 -0.93,1.301 -2.07,2.898 -3.75,5.199 -5.76,7.902 -11.09,16.102 -16.4,24.301 -12.77,19.601 -23.75,40.301 -33.99,61.398 -26.24,53.903 -101.76,68 -150.5,39.5 -54.61,-32 -65.71,-96.597 -39.46,-150.5 C 5344.5,137.699 5413.71,59.6016 5495.78,0 h 1289.75 c 164.96,72.6992 317.45,170.699 439.35,296.402" /><path
         id="path138"
         style="fill:#1d191a;fill-opacity:1;fill-rule:nonzero;stroke:none"
         d="m 6743.31,2300.79 c 97.73,121.46 174.98,253.11 217.18,404.09 37.57,134.47 39.11,275.47 19.97,412.81 -38.93,279.22 -170.34,537.01 -294.95,786.32 -26.79,53.61 -101.35,68.26 -150.5,39.47 -54.21,-31.75 -66.27,-96.87 -39.46,-150.5 107.79,-215.69 216.71,-433.76 262.94,-672.38 46.41,-239.56 -18.46,-475 -170.75,-664.25 -37.54,-46.67 -45.79,-109.77 0,-155.56 38.96,-38.96 117.92,-46.79 155.57,0" /><path
         id="path140"
         style="fill:#1d191a;fill-opacity:1;fill-rule:nonzero;stroke:none"
         d="m 7596.56,3652.75 c -41.54,135.19 -253.92,77.5 -212.15,-58.49 82.36,-268.04 138.01,-542.87 109.35,-824.21 -28.07,-275.45 -161.52,-532.69 -323.24,-755.94 -35.25,-48.66 -8.46,-122.42 39.46,-150.5 55.56,-32.55 115.4,-8.99 150.5,39.47 184.91,255.27 313.36,538.47 351.69,852.73 36.79,301.66 -27.34,609.61 -115.61,896.94" /><path
         id="path142"
         style="fill:#1d191a;fill-opacity:1;fill-rule:nonzero;stroke:none"
         d="m 4137.04,10348.6 c 140.44,-76.6 297.8,-109.8 456.05,-121.4 149.52,-11 300.18,2.4 448.6,20.4 157.19,19.1 306.83,44.4 453.9,60.6 59.58,6.5 110,45 110,110 0,55 -50.28,116.5 -110,110 -289.7,-31.9 -558.14,-92.9 -852.29,-83.6 -123.1,3.9 -255.04,27.1 -362.32,77.3 -131.21,61.4 -231.15,157.1 -310.33,281.8 -75.8,119.3 -266.26,9.1 -189.96,-111.1 90.18,-142 207.87,-263.1 356.35,-344" /><path
         id="path144"
         style="fill:#1d191a;fill-opacity:1;fill-rule:nonzero;stroke:none"
         d="m 4511.48,10859.4 c 217.57,-96.9 468.54,-57.2 699.13,-56.3 141.84,0.6 141.89,220.6 0,220 -104.42,-0.4 -208.7,-7.1 -313.11,-7.5 -94.37,-0.3 -200.87,0.7 -288.82,39.9 -83.74,37.3 -149.52,99.9 -212.79,164.5 h -312.54 c 146.88,-118 249.45,-281.1 428.13,-360.6" /><path
         id="path146"
         style="fill:#1d191a;fill-opacity:1;fill-rule:nonzero;stroke:none"
         d="m 5767.3,10052.8 c -76.23,-97.37 -174.68,-170.35 -282.23,-229.63 -124.26,-68.48 -13.29,-258.48 111.03,-189.96 240.64,132.62 437.86,340.89 499.27,614.69 60.14,268.2 -16.67,544.4 -144.81,780.7 -67.63,124.8 -257.58,13.7 -189.96,-111 53.26,-98.2 93.04,-198.6 117.72,-308.3 20.33,-90.4 23.67,-205.1 7.39,-290.9 -19,-100.1 -58.15,-188.7 -118.41,-265.6" /><path
         id="path148"
         style="fill:#1d191a;fill-opacity:1;fill-rule:nonzero;stroke:none"
         d="m 5971.08,9198.23 c 280.55,174.85 530.61,404.69 667.56,710.68 136.71,305.49 156.89,644.19 136.89,974.19 -3.63,59.9 -47.3,110 -110,110 -57.22,0 -113.64,-50.1 -110,-110 9.79,-161.5 10.37,-323.6 -8.07,-484.6 -5.72,-50 -20.93,-129.6 -36.37,-191 -8.78,-35 -19.25,-69.4 -30.64,-103.6 -9.86,-29.5 -25.1,-68.7 -31.77,-84 -119.72,-274.18 -333.72,-472.84 -588.63,-631.71 -120.09,-74.84 -9.74,-265.23 111.03,-189.96" /><path
         id="path150"
         style="fill:#1d191a;fill-opacity:1;fill-rule:nonzero;stroke:none"
         d="m 7924.71,8182.19 c 52.84,14.53 99.25,79.6 76.83,135.31 -63.79,158.44 -152.61,302.16 -278.86,418.66 -119.47,110.25 -262.62,186.65 -414.27,242.56 -294.18,108.46 -617.8,123.56 -927.86,139.51 -59.93,3.08 -110,-52.37 -110,-110 0,-62.3 50.13,-106.93 110,-110 288.95,-14.86 559.76,-28.57 834.43,-119.45 255.16,-84.41 468.72,-257.23 574.41,-519.76 22.39,-55.57 72.5,-94.11 135.32,-76.83" /><path
         id="path152"
         style="fill:#1d191a;fill-opacity:1;fill-rule:nonzero;stroke:none"
         d="m 6754.44,9548.95 c 15.03,-54.61 78.78,-96.92 135.33,-76.82 130.19,46.3 235.84,55.63 375,47.78 71.91,-4.05 119.19,-12.12 192.27,-28.87 69.76,-15.99 137.97,-38.26 204.41,-64.76 112.44,-44.84 235.6,-122.33 325.58,-206.5 92.58,-86.6 158.63,-186.53 192.35,-300.8 40.05,-135.75 252.39,-77.91 212.14,58.49 -92.17,312.37 -357.42,529.01 -648.3,651.29 -280.91,118.09 -620.21,159.25 -911.95,55.51 -56.44,-20.07 -93.6,-74.3 -76.83,-135.32" /><path
         id="path154"
         style="fill:#1d191a;fill-opacity:1;fill-rule:nonzero;stroke:none"
         d="m 8794.67,6787.26 c 58.79,11.93 91.89,80.54 76.83,135.31 -16.71,60.72 -76.61,88.75 -135.31,76.83 -248.44,-50.43 -502.35,-140.6 -745.78,-171.81 -130.68,-16.76 -264.83,-18.51 -382.86,9.7 -124.24,29.69 -223.4,93.43 -309.26,193.82 -39,45.61 -115.65,39.91 -155.57,0 -44.84,-44.85 -38.93,-110.04 0,-155.56 428.68,-501.21 1121.94,-195.88 1651.95,-88.29" /><path
         id="path156"
         style="fill:#1d191a;fill-opacity:1;fill-rule:nonzero;stroke:none"
         d="m 7380.51,7518.82 c -31.75,-54.2 -10.2,-117.12 39.46,-150.5 176.07,-118.38 363.88,-201.47 576.22,-222.13 195.2,-18.98 394.59,14.66 589.25,27.12 59.81,3.83 110,47.14 110,110 0,57.06 -50.1,113.83 -110,110 -187.78,-12.02 -377.25,-40.8 -565.67,-28.99 -43.29,2.71 -54.24,4.39 -99.95,13.69 -40.72,8.29 -80.56,20.38 -119.69,34.25 -92.96,32.95 -184.67,89.24 -269.12,146.02 -49.83,33.51 -121.64,9.81 -150.5,-39.46" /><path
         id="path158"
         style="fill:#1d191a;fill-opacity:1;fill-rule:nonzero;stroke:none"
         d="m 7759.39,7809.04 c 17.03,-61.87 76.31,-87.16 135.32,-76.82 321.24,56.27 610.94,214.42 817.25,468.88 198.56,244.9 315.49,541.69 414.52,837.88 45.11,134.94 -167.4,192.32 -212.14,58.49 -86.86,-259.78 -191.4,-531.63 -357.93,-740.8 -184.18,-231.33 -427.78,-361.09 -720.18,-412.32 -59.12,-10.35 -91.57,-81.72 -76.84,-135.31" /><path
         id="path160"
         style="fill:#1d191a;fill-opacity:1;fill-rule:nonzero;stroke:none"
         d="m 9590.39,9148.22 c -65.12,0 -103.18,-50.44 -110,-110 -55.51,-485.31 -283.7,-947.65 -695.49,-1224.95 -49.63,-33.42 -71.23,-96.28 -39.46,-150.5 28.84,-49.24 100.69,-73 150.5,-39.46 232.96,156.87 424.23,363.76 560.69,609.43 137.99,248.4 211.63,524.6 243.76,805.48 6.83,59.71 -55.2,110 -110,110" /><path
         id="path162"
         style="fill:#1d191a;fill-opacity:1;fill-rule:nonzero;stroke:none"
         d="m 8030.47,6073.38 c -59.73,-4.99 -110,-46.27 -110,-110 0,-56.18 50.16,-115 110,-110 388.96,32.47 752.99,206.34 992.98,518.95 235.01,306.14 296.1,706.64 193.03,1075.22 -38.15,136.42 -250.43,78.4 -212.14,-58.49 87.27,-312.07 36.4,-623.55 -155.8,-885.86 -183.49,-250.39 -503.07,-403.52 -818.07,-429.82" /><path
         id="path164"
         style="fill:#1d191a;fill-opacity:1;fill-rule:nonzero;stroke:none"
         d="m 8424.92,5488.39 c -54.71,-24.59 -67.31,-102.96 -39.46,-150.5 32.67,-55.78 95.81,-64.05 150.5,-39.46 341.11,153.35 660.71,369.69 894.65,664.81 243.77,307.55 374.01,675.44 404.77,1065.08 4.73,59.86 -53.61,110 -110,110 -63.53,0 -105.28,-50.24 -110,-110 -26.79,-339.4 -146.72,-669 -356.51,-929.76 C 9038.14,5824.22 8744.36,5632 8424.92,5488.39" /><path
         id="path166"
         style="fill:#1d191a;fill-opacity:1;fill-rule:nonzero;stroke:none"
         d="m 8238.83,4837.16 c -15.02,2.81 -29.9,6.29 -44.73,9.99 -14.23,3.54 -28.26,7.82 -42.21,12.33 -4.55,1.48 -26.17,10.09 -29.49,11.11 -17.17,8.03 -33.65,17.4 -49.43,27.88 0.7,0.06 -17.32,13.94 -21.42,17.87 -3.31,3.18 -13.02,15.08 -16.75,19.31 -4.63,7.16 -8.97,14.52 -12.95,22.05 -0.51,1.07 -0.91,1.91 -1.3,2.73 -1.41,4.06 -2.73,8.14 -4.01,12.24 -42.19,134.93 -254.61,77.3 -212.15,-58.48 94.64,-302.66 480.86,-323.72 743.97,-308.67 160.7,9.19 321.3,34.98 478.12,70.82 119.03,27.19 238.42,60.54 349.44,112.11 54.37,25.26 67.6,102.47 39.46,150.5 -32.39,55.3 -96.12,64.73 -150.5,39.46 -2.59,-1.2 -7.87,-3.48 -12.37,-5.42 -7.12,-2.83 -14.24,-5.66 -21.41,-8.36 -23.01,-8.65 -46.35,-16.42 -69.76,-23.91 -57.28,-18.33 -115.48,-33.71 -173.94,-47.71 -67.89,-16.24 -136.4,-29.73 -205.25,-41.2 -39.09,-6.52 -68.47,-10.5 -90.67,-13.23 -36.63,-4.5 -73.38,-7.99 -110.18,-10.84 -71.46,-5.53 -143.21,-7.18 -214.83,-4.22 -31.36,1.3 -62.64,4.03 -93.8,7.77 7.85,-0.72 -28.28,4.83 -33.84,5.87" /><path
         id="path168"
         style="fill:#1d191a;fill-opacity:1;fill-rule:nonzero;stroke:none"
         d="m 9294.88,4393.44 c -222.53,-122.63 -501.09,-206.13 -756.8,-227.74 -145.99,-12.34 -275.03,-6.13 -407.28,31.31 -112.74,31.91 -224.14,99.51 -290.34,186.97 -36.1,47.71 -94.12,72.49 -150.5,39.46 -47.11,-27.6 -75.74,-102.57 -39.46,-150.5 204.81,-270.58 536.75,-349.14 862.31,-329.09 308.31,18.99 622.51,110.5 893.11,259.63 124.26,68.48 13.29,258.48 -111.04,189.96" /><path
         id="path170"
         style="fill:#1d191a;fill-opacity:1;fill-rule:nonzero;stroke:none"
         d="m 9006.49,2332.81 c -89.76,240.03 -168.31,486.21 -290.45,712.49 -128.83,238.68 -317.22,436.6 -555.06,568.19 -124.23,68.73 -235.18,-121.29 -111.04,-189.97 208.58,-115.39 362.31,-282.14 476.13,-489.26 114.6,-208.51 185.02,-437.29 268.28,-659.94 20.98,-56.11 73.59,-93.8 135.32,-76.82 53.9,14.82 97.85,79.09 76.82,135.31" /><path
         id="path172"
         style="fill:#1d191a;fill-opacity:1;fill-rule:nonzero;stroke:none"
         d="m 8903.21,3761.28 c -104.86,94.97 -260.92,-60.14 -155.56,-155.57 157.2,-142.38 370.28,-212.9 509.85,-370.15 166.31,-187.39 150.14,-455.49 241.82,-676.25 22.97,-55.33 72.03,-94.24 135.31,-76.83 52.37,14.4 99.87,79.83 76.83,135.31 -52.11,125.49 -70.61,259.58 -102.79,390.73 -32.17,131.1 -92.77,255.43 -177.5,360.65 -142.06,176.43 -363.89,243.52 -527.96,392.11" /><path
         id="path174"
         style="fill:#1d191a;fill-opacity:1;fill-rule:nonzero;stroke:none"
         d="m 7926.23,2287.49 c 207.5,-48.14 392.06,16.14 579.74,101.08 54.64,24.73 67.37,102.86 39.46,150.5 -32.62,55.68 -95.87,64.19 -150.5,39.47 -130.18,-58.93 -265.85,-112.4 -410.22,-78.91 -138.05,32.03 -196.66,-180.08 -58.48,-212.14" /><path
         id="path176"
         style="fill:#1d191a;fill-opacity:1;fill-rule:nonzero;stroke:none"
         d="m 8706.19,1974.65 c -138.85,-49.96 -282.23,-91.59 -429.33,-107.72 -152.2,-16.68 -306.49,-7.86 -457.13,17.73 -59.07,10.03 -118.25,-14.73 -135.33,-76.83 -14.67,-53.36 17.65,-125.26 76.83,-135.31 165.41,-28.09 331.58,-41.94 499.06,-27.22 173.19,15.22 341.18,58.49 504.38,117.22 56.37,20.27 93.66,74.13 76.83,135.31 -14.98,54.45 -78.85,97.14 -135.31,76.82" /><path
         id="path178"
         style="fill:#1d191a;fill-opacity:1;fill-rule:nonzero;stroke:none"
         d="M 8295.98,58.6992 C 8236.86,87 8224.75,96.6016 8181.3,145.301 c -3.25,3.699 -6.4,7.5 -9.52,11.398 -0.88,1.203 -1.93,2.602 -3.3,4.5 -7.74,10.602 -14.76,21.801 -21.68,33 -7.05,11.403 -13.41,23.203 -19.67,35 -2.79,5.301 -18.03,38.403 -16.26,33.5 -49.87,120.801 -64.31,233.199 -70.76,352.403 -13.38,247.5 11.08,465.598 81.43,699.268 41,136.2 -171.36,193.96 -212.15,58.48 C 7833.33,1120.1 7804.45,842.699 7822.27,579.699 7835.68,381.602 7884.2,155.102 8016.07,0 h 328.26 c -7.83,25 -23.94,47 -48.35,58.6992" /><path
         id="path180"
         style="fill:#1d191a;fill-opacity:1;fill-rule:nonzero;stroke:none"
         d="m 9109.65,129.699 c -41.84,14.903 -90.22,40.5 -133.37,70.903 3.19,-1.903 -18.51,14.898 -17.68,14.199 -11.67,9.801 -22.64,20.5 -33.51,31.199 -8.1,8 -15.74,16.402 -23.38,24.898 -2.5,2.704 -22.86,27.801 -20.12,23.801 -67.62,90 -99.21,172.5 -129.38,276.199 -64.65,222.102 -72.29,423.602 -105.7,651.962 -8.7,59.43 -82.97,91.23 -135.32,76.83 -63.07,-17.36 -85.5,-76.03 -76.82,-135.29 5.52,-37.8 12.03,-90.8 18.89,-147.8 7.81,-64.998 15.96,-129.901 24.96,-194.702 16.69,-120 38.83,-239.597 75.82,-355.296 61.9,-193.5 170.37,-358.903 332.09,-466.602 h 301.58 c 13.09,58.6992 -23.33,110.301 -78.06,129.699" /><path
         id="path182"
         style="fill:#1d191a;fill-opacity:1;fill-rule:nonzero;stroke:none"
         d="m 8914.35,997.898 c -12.57,-58.597 16.59,-118.796 76.82,-135.296 55.28,-15.2 122.74,18.097 135.32,76.796 129.86,605.092 640.78,1054.942 1213.11,1243.102 134.1,44.09 76.7,256.57 -58.5,212.13 C 9639.16,2183.59 9060.36,1678.29 8914.35,997.898" /><path
         id="path184"
         style="fill:#1d191a;fill-opacity:1;fill-rule:nonzero;stroke:none"
         d="m 9304.33,517.902 c -20.27,-56.5 22.34,-120.3 76.82,-135.3 61.14,-16.801 115.09,20.398 135.32,76.796 173.22,482.704 606.03,889.812 1078.13,1078.122 55.6,22.2 94.1,72.64 76.8,135.32 -14.6,52.97 -79.5,99.07 -135.3,76.82 C 9986.94,1530.63 9505.97,1079.8 9304.33,517.902" /><path
         id="path186"
         style="fill:#1d191a;fill-opacity:1;fill-rule:nonzero;stroke:none"
         d="M 9915.89,673.602 C 9793.61,746.199 9683.02,556 9804.85,483.699 c 28.09,-16.699 26.79,-15.597 54.34,-42 23.84,-22.797 36.53,-38.898 51.42,-59.898 41.36,-58.199 71.18,-120.301 93.39,-183.699 23.1,-66 38.8,-132.8012 42.7,-198.102 h 220.2 c -4.5,92.5 -25.8,185.199 -55.2,269.199 -55.1,157.403 -149,317.203 -295.81,404.403" /><path
         id="path188"
         style="fill:#1d191a;fill-opacity:1;fill-rule:nonzero;stroke:none"
         d="m 10500.9,1048.6 c -124.1,69 -235.1,-120.998 -111.1,-189.998 155.4,-86.403 236.9,-232.801 282.9,-402.5 40.4,-148.801 50,-300.102 52.1,-456.102 h 219.8 c -7.1,391.402 -71.2,841.5 -443.7,1048.6" /><path
         id="path190"
         style="fill:#1d191a;fill-opacity:1;fill-rule:nonzero;stroke:none"
         d="m 10026.1,2799.61 c -135.75,-40.02 -77.9,-252.34 58.5,-212.14 146,43.02 294.4,21.3 429.4,-44.46 166.7,-81.21 294.1,-201.58 414.5,-346.53 53.8,-64.79 105.6,-141.06 152.6,-218.72 45.6,-75.31 95.8,-173.53 124.4,-242.25 5,-12.04 9.8,-24.15 14.5,-36.31 v 468.61 c -44.3,67.02 -92.4,131.73 -144.1,194.06 -251.1,302.39 -643,557.61 -1049.8,437.74" /><path
         id="path192"
         style="fill:#1d191a;fill-opacity:1;fill-rule:nonzero;stroke:none"
         d="m 10454.5,3446.74 c -160,0.58 -328.2,-24.92 -469.65,-103.24 -124.12,-68.71 -13.17,-258.73 111.05,-189.96 111,61.46 255,74.84 388.3,72.94 131.2,-1.89 268.7,-19.42 389.5,-76.59 124,-58.72 239.9,-138.43 346.3,-225.94 v 275.08 c -94.7,66.73 -195,125.69 -301.6,170.16 -143.7,59.95 -309.4,76.99 -463.9,77.55" /><path
         id="path194"
         style="fill:#1d191a;fill-opacity:1;fill-rule:nonzero;stroke:none"
         d="m 9754.55,5583.81 c -28.81,14.19 -59.21,26.19 -89.92,35.66 -135.94,41.9 -193.63,-170.49 -58.48,-212.14 6.16,-1.91 34.47,-13.02 36.92,-13.45 12.83,-6.12 25.35,-12.9 37.57,-20.13 5.52,-3.28 31.11,-21.48 32.27,-21.66 11.29,-9.22 22.14,-18.99 32.66,-29.08 12.61,-12.11 24.33,-25.12 35.75,-38.34 1.36,-1.57 7.14,-8.83 9.93,-12.23 3.72,-5.07 7.44,-10.13 11.05,-15.27 21.52,-30.56 39.95,-63.23 56.79,-96.55 4.36,-8.62 8.43,-17.37 12.51,-26.12 0.67,-1.43 5.35,-12.25 7.2,-16.37 6.62,-16.31 12.76,-32.82 18.62,-49.42 13.77,-39.01 24.91,-78.9 34.75,-119.06 10.17,-41.61 17.99,-83.78 24.56,-126.09 0.13,-0.82 1.98,-14.57 2.7,-19.68 1.11,-8.97 2.13,-17.95 3.11,-26.93 2.38,-21.92 4.15,-43.91 5.71,-65.9 12.79,-179.96 0.46,-339.64 -36.4,-500.29 -8.97,-39.09 -19.9,-77.7 -32.23,-115.84 -5.89,-18.24 -12.43,-36.26 -19.22,-54.18 -2.08,-5.48 -4.32,-10.9 -6.51,-16.34 -0.28,-0.33 -6.31,-14.52 -7.39,-16.9 -14.3,-31.56 -30.84,-62.06 -49.11,-91.48 -7.25,-11.66 -15.1,-22.93 -23.15,-34.06 4.84,7.34 -20.84,-24.54 -26.64,-30.69 -97.2,-103.14 58.08,-259 155.56,-155.57 110.64,117.42 173.64,272.57 213.54,426.77 46.6,179.92 62.2,370.09 53.5,555.43 -15.2,326.23 -114,747.5 -435.65,905.91" /><path
         id="path196"
         style="fill:#1d191a;fill-opacity:1;fill-rule:nonzero;stroke:none"
         d="m 10343.1,5906.17 c -47.3,36.7 -109.2,46.35 -155.5,0 -38.4,-38.39 -47.5,-118.75 0,-155.57 125.4,-97.26 207.9,-206.32 279.5,-345.9 71.7,-139.98 115.8,-304.91 140.3,-468 45.3,-302.14 8.1,-656.93 -122,-927.71 -26,-54.04 -15.4,-118.39 39.4,-150.49 48.6,-28.44 124.6,-14.57 150.5,39.46 159,330.73 196.8,710 147.9,1070.93 -47.5,350.29 -193.6,715.12 -480.1,937.28" /><path
         id="path198"
         style="fill:#1d191a;fill-opacity:1;fill-rule:nonzero;stroke:none"
         d="m 10896.9,6338.94 c -272.2,23.96 -558.4,120.38 -763.7,302.18 -105.9,93.66 -262.05,-61.35 -155.61,-155.56 251.71,-222.85 574.61,-331.03 904.91,-365.25 111.7,-11.56 224.9,-12.93 337.5,-4.43 v 221.21 c -107.7,-8.6 -216.6,-7.54 -323.1,1.85" /><path
         id="path200"
         style="fill:#1d191a;fill-opacity:1;fill-rule:nonzero;stroke:none"
         d="m 10560.9,7063.3 c -54.1,25.99 -118.4,15.32 -150.5,-39.46 -28.5,-48.56 -14.6,-124.52 39.4,-150.5 206.9,-99.49 420.6,-191.95 648.8,-227.86 40.5,-6.38 81,-10.7 121.4,-13.37 v 218.62 c -26,2.1 -51.9,5.16 -77.9,9.25 -204.2,32.13 -396.3,114.35 -581.2,203.32" /><path
         id="path202"
         style="fill:#1d191a;fill-opacity:1;fill-rule:nonzero;stroke:none"
         d="m 10487.8,8412.24 c -190.4,-85.82 -369.8,-194.45 -534.74,-322.29 -135.6,-105.08 -264.84,-227.2 -352.65,-376.15 -72.22,-122.49 117.99,-233.12 189.96,-111.03 7.66,12.98 15.63,25.71 23.92,38.29 5.16,7.84 10.59,15.48 16.02,23.13 0.97,1.37 9.23,12.38 11.07,14.98 21.75,27.51 45.16,53.72 69.26,79.19 57.95,61.24 122.06,116.57 188.36,168.55 137.2,107.62 318.6,211.57 487.7,289.84 160.1,74.12 341.5,133.86 521.6,164.17 36.5,6.13 62,8.83 109.4,11.91 l 2.3,0.11 v 219.1 c -49.3,-2.92 -98.4,-8.36 -146.6,-15.3 -203.3,-29.29 -399.1,-100.41 -585.6,-184.5" /><path
         id="path204"
         style="fill:#1d191a;fill-opacity:1;fill-rule:nonzero;stroke:none"
         d="m 10900.9,7862.67 c -247.3,-20.43 -480.6,-97.75 -691.1,-229.4 -119.9,-75.02 -9.6,-265.42 111.1,-189.96 186.8,116.81 390.2,185.44 610.1,201.71 96.1,7.11 192.6,6.56 289,2.56 v 219.27 c -106.4,4.26 -212.8,4.6 -319.1,-4.18" /><path
         id="path206"
         style="fill:#1d191a;fill-opacity:1;fill-rule:nonzero;stroke:none"
         d="m 8614.69,9382.12 c 181.11,51.52 353.87,128.79 536.12,176.39 81.41,21.26 162.69,31.84 246.85,30.35 95.47,-1.69 187.21,-27.99 276.89,-58.95 290.39,-100.23 507.95,-362.89 510.85,-671.69 1.3,-141.79 221.3,-141.92 220,0 -3.6,393.68 -263.6,718.02 -620.23,863.79 -204.62,83.63 -416.24,105.56 -632.97,62.48 -204.73,-40.69 -395.76,-133.27 -595.99,-190.23 -136.23,-38.74 -78.26,-251.03 58.48,-212.14" /><path
         id="path208"
         style="fill:#1d191a;fill-opacity:1;fill-rule:nonzero;stroke:none"
         d="m 8760.96,9963.18 c 160.1,96.02 306.68,152.42 493.38,195.92 100.55,23.4 164.25,32.4 261.67,39 92.88,6.3 186.27,4.2 278.8,-5.7 0.74,-0.1 16.33,-2.1 20.7,-2.6 8.75,-1.3 17.5,-2.6 26.23,-4.1 21.51,-3.5 42.89,-7.8 64.22,-12.3 45.67,-9.7 90.65,-22.6 134.94,-37.5 49.7,-16.7 57.1,-20.1 101.4,-41.6 41.2,-19.9 80.6,-43.3 118.7,-68.7 58.8,-39.38 121.7,-98.19 177.1,-166.47 l 13.2,-17.62 c 6.5,-9.04 12.8,-18.32 19,-27.59 12.6,-18.87 24.2,-38.42 35.5,-58.15 25.9,-45.37 43.3,-85.03 58.1,-125.13 11.8,-31.7 21.5,-64.1 30.4,-96.69 37.2,-136.73 249.5,-78.62 212.1,58.48 -53.7,197.31 -154,380.26 -304.2,520.47 -138.6,129.4 -313,215.5 -495.6,262.7 -377.79,97.6 -790.78,36.5 -1145.52,-115.1 -72.76,-31.1 -143.31,-66.6 -211.16,-107.4 -121.48,-72.8 -10.94,-263.09 111.04,-189.92" /><path
         id="path210"
         style="fill:#1d191a;fill-opacity:1;fill-rule:nonzero;stroke:none"
         d="m 10517.6,10510.9 c -101.2,-99.7 54.5,-255.2 155.5,-155.5 156.8,154.5 345.3,240.5 546.9,287.8 v 227.5 c -30.6,-6 -61.1,-12.7 -91.4,-20.3 -230.3,-57.4 -441.9,-172.7 -611,-339.5" /><path
         id="path212"
         style="fill:#1d191a;fill-opacity:1;fill-rule:nonzero;stroke:none"
         d="m 10954.2,10073.9 c 14.5,-52.7 79.7,-99.45 135.4,-76.81 42.3,17.21 85.9,32.11 130.4,43.91 v 226.5 c -65,-14 -128.6,-33.7 -188.9,-58.3 -55.5,-22.5 -94.2,-72.3 -76.9,-135.3" /><path
         id="path214"
         style="fill:#1d191a;fill-opacity:1;fill-rule:nonzero;stroke:none"
         d="m 7260.51,10088.2 c -6.83,-59.7 55.2,-110.04 110,-110.04 65.12,0 103.19,50.44 110,110.04 32.4,283.3 36.48,574.6 -52.73,848.8 -32.4,99.5 -76.45,193.6 -128.54,283 H 7038 c 77.1,-110.9 140.93,-228.7 181.45,-353.2 81.19,-249.6 71.45,-512.8 41.06,-778.6" /><path
         id="path216"
         style="fill:#1d191a;fill-opacity:1;fill-rule:nonzero;stroke:none"
         d="m 8014.39,10222.4 c -32.61,-138 179.51,-196.5 212.15,-58.5 66.57,281.5 46.18,571.3 -54.37,842.2 -27.34,73.6 -59.73,144.8 -96.04,213.9 h -254.16 c 179.83,-299.9 276.88,-640.5 192.42,-997.6" /><path
         id="path218"
         style="fill:#1d191a;fill-opacity:1;fill-rule:nonzero;stroke:none"
         d="m 8580.44,10718.1 c 3.75,-141.6 223.76,-141.9 220,0 -4.5,170 57.9,344.1 144.84,501.9 h -248.2 c -73.66,-158.5 -121.17,-330.8 -116.64,-501.9" /><path
         id="path220"
         style="fill:#1d191a;fill-opacity:1;fill-rule:nonzero;stroke:none"
         d="m 9411.15,10717.1 c 52.81,-14.6 126.02,17.5 135.32,76.8 25.21,160.7 146.66,303.7 272.22,426.1 h -300.27 c -89.58,-109.9 -163.23,-234.6 -184.09,-367.6 -9.28,-59.2 14.19,-118.1 76.82,-135.3" /></g></g></svg>